<?xml version="1.0" standalone="no"?>
<!DOCTYPE svg PUBLIC "-//W3C//DTD SVG 20010904//EN"
 "http://www.w3.org/TR/2001/REC-SVG-20010904/DTD/svg10.dtd">
<svg version="1.0" xmlns="http://www.w3.org/2000/svg"
 width="270.000000pt" height="270.000000pt" viewBox="0 0 270.000000 270.000000"
 preserveAspectRatio="xMidYMid meet">

<g transform="translate(0.000000,270.000000) scale(0.100000,-0.100000)"
fill="#000000" stroke="none">
<path d="M0 1350 l0 -1350 1350 0 1350 0 0 1350 0 1350 -1350 0 -1350 0 0
-1350z m1270 420 c0 -239 -4 -438 -8 -442 -4 -4 -47 -29 -97 -57 -69 -39 -91
-47 -95 -36 -3 8 -5 216 -5 462 l0 448 90 32 c50 18 96 31 103 30 10 -2 13
-88 12 -437z m202 414 c37 -9 73 -21 80 -28 17 -15 13 -586 -4 -586 -6 0 -46
20 -88 45 l-77 45 -6 152 c-4 83 -7 207 -7 275 0 114 1 124 18 119 9 -3 47
-13 84 -22z m234 -756 c209 -121 381 -223 383 -225 8 -6 -33 -193 -42 -193 -5
0 -77 40 -160 88 -84 49 -248 144 -364 212 l-213 123 0 71 c0 64 9 146 15 146
1 0 173 -100 381 -222z m-686 -56 l0 -98 -218 -127 c-120 -70 -221 -127 -224
-127 -3 0 -16 37 -28 81 -18 68 -19 84 -8 94 7 7 92 58 188 115 96 56 195 115
220 131 69 43 70 42 70 -69z m441 -84 c48 -28 86 -55 83 -60 -5 -8 -714 -435
-739 -444 -10 -4 -41 17 -90 61 -41 37 -75 71 -75 75 0 5 60 43 133 86 72 42
231 135 352 205 121 71 226 129 234 129 8 0 54 -23 102 -52z m339 -238 c96
-56 179 -106 184 -111 10 -9 -119 -159 -136 -159 -12 0 -487 273 -488 280 0 3
46 33 102 67 l102 62 30 -18 c17 -10 110 -65 206 -121z m-1130 -361 l0 -49 35
0 35 0 0 55 c0 32 4 55 10 55 7 0 10 -25 8 -67 l-3 -68 -50 0 -50 0 -3 68 c-2
46 1 67 8 62 5 -3 10 -28 10 -56z m250 5 l0 -54 35 0 35 0 0 55 c0 32 4 55 10
55 7 0 10 -25 8 -67 l-3 -68 -50 0 -50 0 -3 53 -3 52 -50 0 -49 0 0 -40 0 -40
45 0 c34 0 45 -4 45 -16 0 -12 -10 -14 -52 -12 l-53 3 -3 54 c-5 80 -2 82 73
80 l65 -2 0 -53z m140 -3 c0 -48 0 -49 35 -53 20 -2 37 -3 38 -2 1 2 1 21 -1
43 -3 32 -8 41 -23 41 -10 0 -19 7 -19 15 0 13 11 15 55 13 54 -3 76 -20 35
-26 -17 -3 -20 -11 -20 -56 l0 -53 -62 1 -63 1 -3 54 c-2 29 -1 60 2 68 11 28
26 1 26 -46z m180 4 l0 -55 35 0 35 0 0 49 c0 28 5 53 10 56 7 5 10 -16 8 -62
l-3 -68 -50 0 -50 0 -3 68 c-2 42 1 67 8 67 6 0 10 -23 10 -55z m220 25 c8
-31 2 -50 -16 -50 -18 0 -18 -14 1 -30 18 -15 19 -30 2 -30 -7 0 -23 14 -36
30 -24 34 -41 32 -41 -6 0 -13 -4 -24 -10 -24 -6 0 -10 30 -10 71 l0 70 52 -3
c46 -3 53 -6 58 -28z m135 15 c0 -5 -22 -11 -48 -13 -60 -4 -59 -26 1 -30 23
-2 42 -7 42 -12 0 -5 -19 -10 -42 -12 -60 -4 -61 -26 -1 -30 64 -4 57 -23 -9
-23 l-53 0 -3 59 c-2 40 1 62 10 68 17 11 103 6 103 -7z m148 8 c14 -3 17 -16
17 -69 0 -36 -4 -64 -10 -64 -5 0 -10 25 -10 55 0 48 -3 55 -19 55 -17 0 -20
-8 -23 -52 -4 -74 -28 -77 -28 -4 0 49 -2 56 -20 56 -18 0 -20 -7 -20 -55 0
-30 -4 -55 -10 -55 -15 0 -13 127 3 133 16 6 98 6 120 0z m127 -8 c0 -8 -7
-15 -15 -15 -11 0 -15 -11 -15 -40 0 -29 4 -40 15 -40 8 0 15 -7 15 -15 0 -11
-12 -15 -44 -15 -48 0 -72 18 -37 27 17 4 21 13 21 44 0 28 -4 39 -15 39 -8 0
-15 7 -15 15 0 11 12 15 45 15 33 0 45 -4 45 -15z m89 -4 c28 34 38 16 11 -20
l-21 -31 21 -31 c27 -37 16 -54 -12 -19 l-20 25 -15 -22 c-9 -13 -22 -23 -30
-23 -11 0 -10 8 7 35 21 33 21 37 6 60 -24 37 -19 51 9 25 l24 -23 20 24z"/>
<path d="M1370 705 c0 -10 11 -15 35 -15 24 0 35 5 35 15 0 10 -11 15 -35 15
-24 0 -35 -5 -35 -15z"/>
</g>
</svg>
